<svg t="1631868041167" class="icon" viewBox="0 0 1024 1024" version="1.1" xmlns="http://www.w3.org/2000/svg" p-id="878" width="32" height="32"><path d="M257.820444 874.382222a81.066667 81.066667 0 0 1-125.425777-68.935111l0.853333-62.407111V256a123.733333 123.733333 0 0 1 123.733333-123.733333H768a123.733333 123.733333 0 0 1 123.733333 123.733333v273.706667c0 139.022222-112.711111 251.733333-251.733333 251.733333H399.985778l-142.165334 92.956444z m-0.853333-665.315555a46.933333 46.933333 0 0 0-46.933333 46.933333v487.552l-0.853334 62.933333a4.266667 4.266667 0 0 0 6.613334 3.626667l161.308444-105.472H640c96.611556 0 174.933333-78.321778 174.933333-174.933333V256a46.933333 46.933333 0 0 0-46.933333-46.933333H256.981333z" fill="#8a8a8a" p-id="879"></path><path d="M391.111111 500.622222h256a38.4 38.4 0 0 0 0-76.8h-256a38.4 38.4 0 0 0 0 76.8z" fill="#8a8a8a" p-id="880"></path><path d="M480.711111 334.222222v256a38.4 38.4 0 0 0 76.8 0v-256a38.4 38.4 0 0 0-76.8 0z" fill="#8a8a8a" p-id="881"></path></svg>